<svg xmlns="http://www.w3.org/2000/svg" viewBox="0 0 300 120" width="300" height="120">
  <g stroke="#3D2B1F" fill="#3D2B1F" stroke-width="2">
    <circle cx="50" cy="30" r="8" />
    <polygon points="50,40 40,70 60,70" />
    <polygon points="50,100 40,70 60,70" />
    <line x1="45" y1="90" x2="35" y2="110" />
    <line x1="55" y1="90" x2="65" y2="110" />
    <line x1="50" y1="45" x2="30" y2="60" />
    <line x1="50" y1="45" x2="90" y2="60" />

    <circle cx="110" cy="25" r="8" />
    <polygon points="110,35 100,65 120,65" />
    <polygon points="110,95 100,65 120,65" />
    <line x1="105" y1="85" x2="95" y2="110" />
    <line x1="115" y1="85" x2="125" y2="110" />
    <line x1="110" y1="40" x2="70" y2="60" />
    <line x1="110" y1="40" x2="150" y2="60" />

    <circle cx="170" cy="30" r="8" />
    <polygon points="170,40 160,70 180,70" />
    <polygon points="170,100 160,70 180,70" />
    <line x1="165" y1="90" x2="155" y2="110" />
    <line x1="175" y1="90" x2="185" y2="110" />
    <line x1="170" y1="45" x2="130" y2="60" />
    <line x1="170" y1="45" x2="210" y2="60" />

    <circle cx="230" cy="25" r="8" />
    <polygon points="230,35 220,65 240,65" />
    <polygon points="230,95 220,65 240,65" />
    <line x1="225" y1="85" x2="215" y2="110" />
    <line x1="235" y1="85" x2="245" y2="110" />
    <line x1="230" y1="40" x2="190" y2="60" />
    <line x1="230" y1="40" x2="250" y2="60" />
  </g>
</svg>
